<?xml version="1.0" encoding="UTF-8"?>
<svg width="20px" height="20px" viewBox="0 0 20 20" version="1.1" xmlns="http://www.w3.org/2000/svg" xmlns:xlink="http://www.w3.org/1999/xlink">
    <title>check-completed</title>
    <g id="Page-1" stroke="none" stroke-width="1" fill="none" fill-rule="evenodd">
        <g id="check-completed" fill="#FF2E63" fill-rule="nonzero">
            <path d="M6.30753572,8.17195076 C6.02913223,7.84514904 5.54825348,7.81791557 5.24453065,8.1174838 C4.94081775,8.41705204 4.91550834,8.93449875 5.19391183,9.26130047 L9.01566225,13.7276652 C9.16752862,13.891002 9.34469447,14 9.54716974,14 C9.54716974,14 9.54716974,14 9.57247915,14 C9.77495441,14 9.97742968,13.9182248 10.1039767,13.754888 L19.7722302,3.37881629 C20.0759233,3.05201459 20.0759233,2.53457855 19.7722302,2.23499963 C19.4685371,1.9354314 18.9876485,1.90819791 18.7092549,2.23499963 L9.59778855,12.0118815 L6.30753572,8.17195076 Z" id="Path"></path>
            <path d="M19.2462364,9.24623635 C18.8190741,9.24623635 18.4924727,9.57286727 18.4924727,10.0000492 C18.4924727,14.6733248 14.6734233,18.4924727 10.0000492,18.4924727 C5.32663583,18.4924727 1.50753714,14.6733248 1.50753714,10.0000492 C1.50753714,5.32663583 5.32663583,1.50753714 10.0000492,1.50753714 C10.427113,1.50753714 10.7538129,1.18090623 10.7538129,0.753769558 C10.7538129,0.326633868 10.427113,0 10.0000492,0 C4.49749583,0 0,4.49748597 0,10.0000492 C0,15.5025338 4.49749583,20 10.0000492,20 C15.5025338,20 20,15.5025338 20,10.0000492 C20,9.57286727 19.6733986,9.24623635 19.2462364,9.24623635 Z" id="Path"></path>
        </g>
    </g>
</svg>